<?xml version="1.0" encoding="UTF-8"?>
<svg xmlns="http://www.w3.org/2000/svg" xmlns:xlink="http://www.w3.org/1999/xlink" width="150px" height="127px" viewBox="0 0 150 127" version="1.1">
<g id="surface1">
<path style=" stroke:none;fill-rule:nonzero;fill:rgb(99.607843%,99.215686%,98.823529%);fill-opacity:1;" d="M 79.53125 127.835938 C 56.738281 127.835938 34.355469 127.835938 11.972656 127.835938 C 11.972656 85.5 11.972656 43.171875 11.972656 0.835938 C 54.542969 0.835938 97.113281 0.835938 139.679688 0.835938 C 139.679688 43.171875 139.679688 85.5 139.679688 127.835938 C 119.765625 127.835938 99.859375 127.835938 79.53125 127.835938 M 124.65625 41.5 C 124.429688 41.324219 124.207031 41.140625 124.023438 40.941406 C 124.023438 40.941406 124 40.984375 124.011719 40.359375 C 122.769531 37.070312 121.746094 33.558594 117.398438 33.460938 C 117.398438 33.460938 117.308594 33.574219 117.382812 32.929688 C 117.292969 30.257812 115.777344 29.203125 112.804688 28.996094 C 107.910156 23.796875 107.914062 23.800781 102.632812 26.683594 C 102.453125 26.777344 102.113281 26.589844 101.867188 25.808594 C 101.867188 23.742188 101.867188 21.679688 101.867188 19.617188 C 101.234375 20.191406 100.601562 20.765625 99.96875 21.335938 C 99.398438 19.820312 99.007812 18.195312 98.21875 16.796875 C 96.789062 14.253906 94.875 14.65625 93.308594 16.605469 C 92.324219 17.835938 91.789062 19.445312 90.488281 20.886719 C 89.804688 20.328125 89.113281 19.769531 88.589844 18.523438 C 88.59375 13.867188 88.398438 13.691406 83.8125 14.871094 C 83.445312 15.175781 83.082031 15.484375 82.816406 15.777344 C 82.816406 15.777344 82.714844 15.753906 82.25 16.121094 C 80.667969 16.613281 79.089844 17.109375 77.851562 17.496094 C 77.851562 16.0625 77.851562 14.972656 77.851562 13.890625 C 76.75 14.09375 75.5625 14.109375 74.570312 14.558594 C 73.761719 14.921875 73.175781 15.8125 72.242188 16.496094 C 72.242188 16.496094 72.117188 16.71875 71.613281 16.769531 C 70.957031 17.296875 70.304688 17.824219 69.105469 18.445312 C 68.453125 18.703125 67.804688 18.957031 66.800781 18.765625 C 66.734375 17.964844 66.847656 17.089844 66.566406 16.382812 C 65.960938 14.863281 65.148438 13.425781 64.417969 11.957031 C 63.015625 13 61.226562 13.777344 60.304688 15.152344 C 59.207031 16.796875 58.851562 18.949219 58.011719 21.308594 C 57.769531 21.480469 57.53125 21.652344 56.828125 21.757812 C 56.648438 22 56.472656 22.238281 55.828125 22.441406 C 55.515625 22.410156 55.207031 22.378906 54.933594 21.644531 C 54.933594 19.636719 54.933594 17.632812 54.933594 15.621094 C 54.445312 15.460938 53.960938 15.292969 53.472656 15.128906 C 52.824219 16.417969 51.808594 17.640625 51.578125 19 C 50.652344 24.460938 50.625 24.5625 45.527344 22.71875 C 44.195312 22.550781 42.867188 22.386719 41.53125 22.21875 C 41.503906 23.421875 41.480469 24.628906 40.949219 26.066406 C 40.757812 26.773438 40.5625 27.488281 40.234375 28.6875 C 39.847656 27.742188 39.660156 27.300781 39.808594 27.644531 C 38.3125 28.675781 36.738281 29.765625 34.878906 30.34375 C 33.605469 31.097656 31.808594 31.542969 31.160156 32.671875 C 29.671875 35.246094 28.746094 38.152344 27.210938 41.230469 C 27.089844 41.695312 26.960938 42.164062 26.453125 43.042969 C 25.265625 45.660156 24.019531 48.257812 22.894531 50.90625 C 21.117188 55.097656 21.597656 56.179688 25.558594 58.792969 C 25.445312 60.097656 25.339844 61.402344 24.609375 62.941406 C 23.128906 62.75 21.09375 61.878906 20.3125 62.539062 C 19.417969 63.289062 19.4375 65.402344 19.453125 66.921875 C 19.46875 68.207031 20.039062 69.488281 20.023438 71.28125 C 17.84375 72.019531 17.769531 73.195312 18.546875 75.355469 C 22.804688 87.230469 26.832031 99.1875 30.511719 111.449219 C 30.933594 112.171875 31.355469 112.890625 32.21875 114.011719 C 33.15625 116.398438 34.097656 118.789062 35.101562 121.753906 C 36.042969 123.710938 37.046875 124.828125 38.914062 121.988281 C 39.5 122.007812 40.078125 122.027344 41.207031 122.242188 C 41.574219 122.332031 41.949219 122.429688 42.488281 123.007812 C 43.621094 122.898438 44.75 122.792969 46.296875 122.621094 C 46.578125 122.609375 46.855469 122.597656 47.855469 122.746094 C 49.074219 122.789062 50.292969 122.824219 51.628906 123.457031 C 53.710938 124.738281 55.730469 126.949219 58.789062 123.796875 C 59.9375 123.734375 61.082031 123.675781 62.699219 124.105469 C 64.550781 124.089844 66.402344 124.070312 68.242188 124.195312 C 68.242188 124.195312 68.132812 124.285156 68.121094 124.898438 C 69.347656 126.847656 70.414062 126.824219 71.980469 124.484375 C 73.613281 124.421875 75.242188 124.363281 77.59375 124.417969 C 79.367188 124.078125 81.148438 123.734375 83.613281 123.597656 C 85.269531 123.6875 86.933594 123.78125 88.703125 124.394531 C 89.492188 124.160156 90.285156 123.925781 91.546875 123.191406 C 93.691406 122.976562 95.828125 122.753906 98.597656 122.570312 C 99.882812 122.605469 101.171875 122.636719 103.046875 122.84375 C 103.449219 122.890625 103.855469 122.941406 104.261719 123.578125 C 104.972656 124.335938 105.679688 125.089844 106.386719 125.851562 C 107.320312 124.558594 108.257812 123.269531 109.660156 121.730469 C 110.070312 120.980469 110.484375 120.238281 111.472656 119.40625 C 113.648438 117.390625 115.359375 115.210938 114.179688 111.34375 C 114.699219 109.871094 115.210938 108.394531 116.308594 106.859375 C 118.582031 103.917969 121.511719 101.21875 119.863281 96.238281 C 119.886719 95.628906 119.90625 95.027344 120.503906 94.3125 C 122.632812 90.753906 125.898438 87.554688 124.117188 82.132812 C 125.183594 78.980469 126.253906 75.828125 127.226562 72.074219 C 126.015625 71.417969 124.8125 70.757812 123.511719 69.433594 C 123.699219 68.574219 123.882812 67.707031 124.664062 66.773438 C 129.132812 65.308594 129.453125 61.851562 128.644531 57.414062 C 128.433594 56.230469 128.222656 55.050781 128.070312 53.164062 C 126.730469 52.074219 125.390625 50.992188 123.667969 49.597656 C 123.691406 49.335938 123.792969 48.273438 124.046875 46.910156 C 124.214844 46.730469 124.417969 46.667969 125.1875 46.714844 C 125.28125 46.15625 125.371094 45.59375 125.316406 44.5625 C 125.324219 44.226562 125.335938 43.898438 125.820312 43.316406 C 125.445312 42.835938 125.074219 42.355469 124.777344 41.855469 C 124.777344 41.855469 124.761719 41.933594 124.65625 41.5 M 125.996094 36.09375 C 126.316406 36.097656 126.644531 36.101562 126.96875 36.109375 C 126.96875 35.972656 126.976562 35.714844 126.96875 35.714844 C 126.644531 35.6875 126.324219 35.6875 125.996094 36.09375 M 129.628906 39.601562 C 129.625 39.925781 129.617188 40.253906 129.613281 40.582031 C 129.75 40.582031 130 40.59375 130 40.582031 C 130.027344 40.257812 130.027344 39.929688 129.628906 39.601562 Z M 129.628906 39.601562 "/>
<path style=" stroke:none;fill-rule:nonzero;fill:rgb(55.686275%,27.058824%,10.588235%);fill-opacity:1;" d="M 88.429688 19.207031 C 89.113281 19.769531 89.804688 20.328125 90.78125 21.230469 C 89.699219 26.355469 88.316406 31.136719 86.671875 35.925781 C 86.027344 35.929688 85.664062 35.929688 85.019531 35.929688 C 84.382812 35.929688 84.015625 35.929688 83.652344 35.617188 C 83.648438 34.675781 83.648438 34.042969 83.761719 33.148438 C 84.890625 31.257812 86.0625 29.71875 86.867188 28.003906 C 87.703125 26.226562 88.183594 24.277344 88.816406 22.40625 C 88.261719 22.136719 87.703125 21.867188 87.148438 21.601562 C 84.472656 25.613281 81.753906 29.597656 79.222656 33.703125 C 79.078125 33.9375 80.492188 35.160156 81.378906 36.066406 C 81.722656 36.671875 81.867188 37.136719 81.972656 37.914062 C 80.996094 41.363281 79.921875 44.464844 79.199219 47.65625 C 78.992188 48.535156 79.800781 49.65625 80.148438 50.667969 C 81.007812 49.902344 82.246094 49.300781 82.632812 48.34375 C 83.480469 46.253906 83.890625 43.980469 84.683594 41.695312 C 85.570312 41.671875 86.257812 41.726562 86.996094 42.082031 C 90.304688 44.011719 90.304688 44.011719 94.265625 37.101562 C 99.34375 38.417969 104.367188 40.46875 109.636719 39.367188 C 109.769531 38.734375 109.894531 38.101562 110.023438 37.46875 C 107.394531 36.570312 104.769531 35.664062 102.265625 34.800781 C 102.386719 32.5 102.492188 30.449219 102.871094 28.4375 C 105.90625 31.300781 108.746094 34.039062 111.382812 36.964844 C 114.027344 39.894531 116.464844 43.011719 118.699219 46.015625 C 116.316406 44.785156 114.28125 43.484375 112.113281 42.472656 C 111.46875 42.167969 110.460938 42.675781 109.613281 42.8125 C 109.871094 43.761719 109.820312 45.164062 110.429688 45.59375 C 113.210938 47.539062 116.175781 49.210938 119.234375 51.1875 C 120.242188 51.527344 121.09375 51.660156 121.929688 52.125 C 122.125 53.320312 122.335938 54.179688 122.300781 55.214844 C 118.886719 61.238281 115.714844 67.09375 112.304688 73.125 C 110.875 73.398438 109.679688 73.488281 108.347656 73.285156 C 107.167969 72.894531 106.125 72.792969 104.96875 72.429688 C 103.667969 70.332031 102.476562 68.507812 101.292969 66.675781 C 100.730469 66.871094 100.164062 67.0625 99.601562 67.257812 C 99.8125 69.523438 100.023438 71.785156 100.023438 74.222656 C 99.121094 74.582031 98.4375 74.773438 97.714844 74.527344 C 97.691406 73.503906 97.691406 72.914062 97.671875 72.015625 C 97.089844 68.585938 96.671875 65.445312 95.925781 62.386719 C 95.328125 59.953125 95.117188 56.519531 91.539062 56.96875 C 87.476562 57.484375 89.039062 60.730469 89.445312 63.164062 C 89.738281 64.925781 89.976562 66.769531 90.6875 68.371094 C 91.402344 69.988281 92.675781 71.363281 93.472656 73.046875 C 91.402344 73.691406 89.566406 74.125 87.71875 74.28125 C 87.789062 73.835938 87.871094 73.667969 88.234375 73.4375 C 90.582031 71.261719 89.019531 69.742188 87.355469 68.996094 C 86.644531 68.671875 85.046875 69.949219 84.089844 70.78125 C 83.46875 71.320312 83.277344 72.375 82.683594 73.359375 C 81.261719 73.882812 80.058594 74.242188 78.824219 74.332031 C 78.78125 73.886719 78.753906 73.710938 78.757812 73.269531 C 78.75 72.652344 78.71875 72.296875 78.835938 71.699219 C 82.683594 65.519531 86.472656 59.636719 90.027344 53.613281 C 91.277344 51.496094 91.667969 48.652344 89.128906 47.449219 C 88.121094 46.972656 85.355469 48.582031 84.441406 49.957031 C 81.179688 54.890625 78.542969 60.25 75.300781 65.195312 C 73.402344 68.101562 73.347656 70.519531 75.179688 73.261719 C 74.570312 73.476562 74.207031 73.578125 73.523438 73.632812 C 72.535156 73.613281 71.875 73.628906 71.226562 73.59375 C 71.242188 73.539062 71.160156 73.613281 71.171875 73.445312 C 71.175781 73.273438 71.230469 72.9375 71.246094 72.597656 C 70.78125 71.054688 70.207031 69.878906 69.835938 68.636719 C 69.40625 67.230469 69.148438 65.769531 69.085938 64.441406 C 69.980469 63.804688 71.207031 62.988281 71.136719 62.316406 C 70.96875 60.726562 70.183594 59.203125 69.929688 57.683594 C 71.449219 58.5 72.675781 59.285156 74.671875 60.5625 C 75.558594 58.253906 76.863281 56.347656 76.949219 54.378906 C 77.226562 48.144531 77.101562 41.890625 77.027344 35.648438 C 76.992188 32.480469 75.875 30.222656 72.117188 30.914062 C 72.117188 30.914062 72.117188 30.914062 72.121094 30.605469 C 73.160156 29.390625 74.164062 28.453125 75.238281 27.609375 C 76.359375 26.71875 77.554688 25.914062 79.007812 25.039062 C 82.34375 23.074219 85.386719 21.140625 88.429688 19.207031 M 102.191406 49.300781 C 101.117188 47.382812 100.28125 45.257812 98.886719 43.621094 C 98.074219 42.667969 96.367188 42.503906 95.058594 41.980469 C 94.570312 43.421875 93.527344 44.957031 93.730469 46.296875 C 93.996094 48.109375 95.167969 49.808594 96.054688 51.496094 C 98.59375 56.34375 100.996094 61.277344 103.875 65.914062 C 104.621094 67.121094 106.890625 67.34375 108.464844 68.015625 C 108.738281 66.480469 109.671875 64.660156 109.164062 63.464844 C 107.183594 58.816406 104.746094 54.371094 102.191406 49.300781 M 104.347656 48.691406 C 106.03125 51.441406 107.714844 54.195312 109.941406 57.835938 C 111.183594 52.027344 107.046875 44.015625 102.25 42.582031 C 102.992188 44.808594 103.542969 46.460938 104.347656 48.691406 M 113.941406 55.488281 C 113.058594 59.046875 112.183594 62.605469 111.300781 66.164062 C 111.882812 66.324219 112.460938 66.488281 113.039062 66.648438 C 116.515625 62.511719 116.566406 57.125 118.15625 52.300781 C 117.726562 52.035156 117.292969 51.765625 116.863281 51.496094 C 115.949219 52.617188 115.023438 53.734375 113.941406 55.488281 Z M 113.941406 55.488281 "/>
<path style=" stroke:none;fill-rule:nonzero;fill:rgb(55.686275%,27.058824%,10.588235%);fill-opacity:1;" d="M 54.894531 22.347656 C 55.207031 22.378906 55.515625 22.410156 56.304688 22.492188 C 56.957031 22.546875 57.121094 22.550781 57.453125 22.753906 C 56.441406 27.351562 55.132812 31.730469 54.179688 36.179688 C 53.945312 37.261719 54.585938 39.222656 55.402344 39.652344 C 56.230469 40.085938 57.992188 39.425781 58.933594 38.691406 C 59.785156 38.027344 60.234375 36.671875 60.601562 35.535156 C 61.886719 31.566406 63.0625 27.5625 64.277344 23.574219 C 64.664062 23.574219 65.046875 23.574219 65.429688 23.570312 C 65.734375 24.621094 66.035156 25.675781 66.097656 26.855469 C 65.738281 28.019531 65.628906 29.058594 65.65625 30.363281 C 67.90625 30.722656 70.011719 30.820312 72.117188 30.914062 C 72.117188 30.914062 72.117188 30.914062 71.988281 31.214844 C 71.628906 35.253906 71.488281 39.007812 71.144531 42.746094 C 70.738281 47.175781 70.152344 51.582031 69.421875 55.800781 C 68.296875 53.566406 68.878906 50.363281 64.222656 50.347656 C 65.566406 54.730469 66.785156 58.699219 67.703125 62.632812 C 66.734375 62.164062 66.054688 61.742188 65.402344 61.28125 C 62.554688 59.277344 61.296875 59.839844 60.546875 63.398438 C 60.410156 64.027344 60.023438 64.59375 59.367188 65.1875 C 54.300781 65.460938 49.613281 65.730469 44.925781 65.695312 C 46.898438 61.707031 48.863281 58.03125 50.824219 54.351562 C 50.496094 53.976562 50.167969 53.597656 49.839844 53.21875 C 48.714844 53.953125 47.269531 54.445312 46.53125 55.460938 C 45.089844 57.441406 44.125 59.773438 42.804688 61.859375 C 40.859375 64.949219 41.117188 65.53125 44.972656 66.324219 C 47.546875 70.003906 51.335938 68.359375 54.527344 68.921875 C 56.152344 69.207031 58.007812 68.140625 60.054688 67.714844 C 61.519531 69.691406 62.695312 71.640625 63.554688 73.597656 C 61.511719 74.589844 58.992188 68.695312 57.515625 74.289062 C 56.714844 74.339844 56.175781 74.351562 55.398438 74.242188 C 54.484375 73.949219 53.804688 73.785156 52.9375 73.570312 C 52.753906 73.511719 52.359375 73.507812 52.109375 73.375 C 50.417969 72.804688 48.984375 72.359375 47.246094 71.785156 C 43.761719 69.878906 40.597656 69.074219 37.304688 71.929688 C 36.871094 72.464844 36.644531 72.949219 36.09375 73.445312 C 33.582031 73.039062 31.390625 72.628906 29.164062 71.957031 C 27.828125 68.707031 26.527344 65.710938 25.234375 62.710938 C 25.339844 61.402344 25.445312 60.097656 25.742188 58.28125 C 25.945312 57.445312 25.960938 57.121094 26.261719 56.761719 C 27.667969 54.898438 28.941406 53.148438 29.886719 51.230469 C 32.78125 45.316406 35.550781 39.339844 38.441406 33.574219 C 38.667969 34.007812 38.878906 34.167969 39.152344 34.589844 C 40.070312 36.542969 40.984375 38.179688 41.902344 39.808594 C 42.089844 38.09375 42.277344 36.382812 42.457031 34.664062 C 42.472656 34.527344 42.453125 34.386719 42.726562 34.25 C 43.363281 34.253906 43.734375 34.253906 44.105469 34.585938 C 45.34375 38.574219 46.308594 42.375 47.949219 45.84375 C 48.59375 47.214844 50.761719 47.84375 52.238281 48.808594 C 52.710938 47.089844 53.921875 45.167969 53.523438 43.6875 C 52.007812 37.988281 49.972656 32.429688 48.449219 26.792969 C 49.976562 28.09375 51.183594 29.417969 53.367188 31.816406 C 53.988281 27.96875 54.441406 25.160156 54.894531 22.347656 M 68.640625 39.109375 C 66.722656 35.648438 64.179688 36.386719 62.558594 38.914062 C 58.714844 44.910156 55.1875 51.132812 51.890625 57.457031 C 51.292969 58.605469 52.398438 60.671875 52.722656 62.308594 C 54.390625 61.804688 56.941406 61.824219 57.585938 60.707031 C 61.539062 53.855469 65.0625 46.75 68.640625 39.109375 M 30.867188 58.84375 C 30.546875 60.746094 30.464844 62.734375 29.839844 64.527344 C 28.953125 67.0625 29.148438 69.4375 31.921875 69.542969 C 33.175781 69.59375 34.96875 67.078125 35.753906 65.367188 C 36.820312 63.039062 37.261719 60.382812 37.78125 57.832031 C 38.597656 53.785156 39.476562 49.734375 39.847656 45.640625 C 39.953125 44.492188 38.375 43.179688 37.570312 41.945312 C 36.457031 42.933594 34.738281 43.71875 34.339844 44.941406 C 32.953125 49.261719 32.023438 53.730469 30.867188 58.84375 M 44.867188 49.796875 C 45.066406 48.851562 45.5 47.878906 45.390625 46.972656 C 45.316406 46.355469 44.5625 45.660156 43.945312 45.351562 C 43.683594 45.226562 42.652344 45.910156 42.535156 46.371094 C 41.609375 49.972656 40.746094 53.601562 40.085938 57.261719 C 39.984375 57.804688 41.050781 58.558594 41.582031 59.21875 C 42.136719 58.738281 43.027344 58.339844 43.183594 57.75 C 43.816406 55.355469 44.226562 52.894531 44.867188 49.796875 Z M 44.867188 49.796875 "/>
<path style=" stroke:none;fill-rule:nonzero;fill:rgb(98.431373%,85.098039%,76.078431%);fill-opacity:1;" d="M 36.421875 73.4375 C 36.644531 72.949219 36.871094 72.464844 37.59375 72.050781 C 41.1875 72.742188 44.28125 73.359375 47.4375 74.289062 C 48.585938 81.472656 49.667969 88.355469 50.789062 95.527344 C 51.078125 96.738281 51.339844 97.660156 51.597656 98.863281 C 51.683594 99.511719 51.769531 99.875 51.796875 100.546875 C 52.164062 102.433594 52.597656 104.023438 52.980469 105.722656 C 52.933594 105.839844 53.007812 106.078125 53 106.453125 C 53.621094 111.039062 54.253906 115.246094 54.867188 119.742188 C 54.929688 120.398438 55.003906 120.769531 55.023438 121.421875 C 54.917969 122.070312 54.863281 122.445312 54.484375 122.832031 C 53.277344 122.847656 52.394531 122.859375 51.511719 122.863281 C 50.292969 122.824219 49.074219 122.789062 47.578125 122.34375 C 47.238281 120.980469 47.308594 119.992188 47.097656 119.074219 C 43.5625 103.855469 39.984375 88.648438 36.421875 73.4375 Z M 36.421875 73.4375 "/>
<path style=" stroke:none;fill-rule:nonzero;fill:rgb(98.431373%,85.098039%,75.686275%);fill-opacity:1;" d="M 97.746094 74.964844 C 98.4375 74.773438 99.121094 74.582031 100.347656 74.203125 C 102.277344 73.570312 103.683594 73.132812 105.082031 72.691406 C 106.125 72.792969 107.167969 72.894531 108.296875 73.621094 C 106.082031 84.519531 103.726562 94.785156 101.484375 105.070312 C 100.21875 110.871094 99.132812 116.707031 97.964844 122.53125 C 95.828125 122.753906 93.691406 122.976562 91.054688 123.40625 C 90.394531 123.5625 90.222656 123.515625 90.085938 123.117188 C 90.730469 118.671875 91.3125 114.574219 91.972656 110.480469 C 93.875 98.640625 95.816406 86.804688 97.746094 74.964844 Z M 97.746094 74.964844 "/>
<path style=" stroke:none;fill-rule:nonzero;fill:rgb(95.686275%,37.254902%,36.078431%);fill-opacity:1;" d="M 36.09375 73.445312 C 39.984375 88.648438 43.5625 103.855469 47.097656 119.074219 C 47.308594 119.992188 47.238281 120.980469 47.21875 122.261719 C 46.855469 122.597656 46.578125 122.609375 45.832031 122.472656 C 44.359375 122.394531 43.339844 122.460938 42.320312 122.519531 C 41.949219 122.429688 41.574219 122.332031 40.925781 121.832031 C 35.699219 105.277344 30.761719 89.140625 26.070312 72.804688 C 26.484375 72.46875 26.644531 72.339844 27.105469 72.292969 C 28 72.324219 28.605469 72.269531 29.203125 72.210938 C 31.390625 72.628906 33.582031 73.039062 36.09375 73.445312 Z M 36.09375 73.445312 "/>
<path style=" stroke:none;fill-rule:nonzero;fill:rgb(95.294118%,37.254902%,36.470588%);fill-opacity:1;" d="M 98.28125 122.550781 C 99.132812 116.707031 100.21875 110.871094 101.484375 105.070312 C 103.726562 94.785156 106.082031 84.519531 108.433594 73.914062 C 109.679688 73.488281 110.875 73.398438 112.636719 73.097656 C 115.1875 73.023438 117.160156 73.152344 119.078125 73.605469 C 118.351562 76.039062 117.660156 78.148438 117.035156 80.277344 C 112.960938 94.109375 108.894531 107.945312 104.679688 121.867188 C 104.535156 121.941406 104.308594 122.191406 104.058594 122.175781 C 103.359375 122.328125 102.910156 122.496094 102.460938 122.667969 C 101.171875 122.636719 99.882812 122.605469 98.28125 122.550781 Z M 98.28125 122.550781 "/>
<path style=" stroke:none;fill-rule:nonzero;fill:rgb(95.294118%,37.254902%,36.078431%);fill-opacity:1;" d="M 97.714844 74.527344 C 95.816406 86.804688 93.875 98.640625 91.972656 110.480469 C 91.3125 114.574219 90.730469 118.671875 89.839844 123.167969 C 89.234375 123.664062 88.914062 123.765625 88.589844 123.867188 C 86.933594 123.78125 85.269531 123.6875 83.308594 123.171875 C 83.230469 120.691406 83.46875 118.636719 83.671875 116.582031 C 85.03125 102.574219 86.378906 88.566406 87.734375 74.5625 C 89.566406 74.125 91.402344 73.691406 93.800781 73.015625 C 95.472656 72.632812 96.582031 72.480469 97.695312 72.332031 C 97.691406 72.914062 97.691406 73.503906 97.714844 74.527344 Z M 97.714844 74.527344 "/>
<path style=" stroke:none;fill-rule:nonzero;fill:rgb(98.431373%,84.705882%,75.686275%);fill-opacity:1;" d="M 87.71875 74.28125 C 86.378906 88.566406 85.03125 102.574219 83.671875 116.582031 C 83.46875 118.636719 83.230469 120.691406 82.964844 123.070312 C 81.148438 123.734375 79.367188 124.078125 77.28125 124.046875 C 76.980469 122.828125 76.992188 121.984375 77.039062 120.863281 C 77.0625 120.214844 77.039062 119.847656 77.085938 119.128906 C 77.625 105.910156 78.097656 93.046875 78.632812 79.855469 C 78.699219 78.640625 78.703125 77.761719 78.769531 76.597656 C 78.828125 75.933594 78.828125 75.554688 78.878906 75.03125 C 78.925781 74.890625 78.855469 74.601562 78.855469 74.601562 C 80.058594 74.242188 81.261719 73.882812 82.992188 73.320312 C 84.996094 73.246094 86.472656 73.371094 87.957031 73.503906 C 87.871094 73.667969 87.789062 73.835938 87.71875 74.28125 Z M 87.71875 74.28125 "/>
<path style=" stroke:none;fill-rule:nonzero;fill:rgb(98.823529%,85.098039%,76.470588%);fill-opacity:1;" d="M 57.78125 74.246094 C 58.992188 68.695312 61.511719 74.589844 63.769531 73.75 C 64.957031 74.121094 65.617188 74.347656 66.300781 74.941406 C 66.628906 79.722656 66.925781 84.136719 67.179688 88.949219 C 67.507812 100.910156 67.878906 112.480469 68.253906 124.054688 C 66.402344 124.070312 64.550781 124.089844 62.457031 123.53125 C 62.03125 121.488281 61.84375 120.015625 61.640625 118.238281 C 61.546875 117.335938 61.464844 116.734375 61.414062 115.824219 C 61.359375 114.890625 61.285156 114.273438 61.273438 113.316406 C 61.113281 111.238281 60.878906 109.496094 60.664062 107.425781 C 60.597656 106.214844 60.519531 105.339844 60.492188 104.113281 C 60.285156 101.761719 60.023438 99.75 59.777344 97.382812 C 59.582031 94.734375 59.363281 92.445312 59.148438 89.890625 C 59.078125 89.265625 59.011719 88.917969 58.972656 88.253906 C 58.910156 87.324219 58.835938 86.703125 58.808594 85.738281 C 58.609375 83.382812 58.351562 81.375 58.109375 79.054688 C 58.046875 78.128906 57.972656 77.511719 57.953125 76.566406 C 57.925781 75.566406 57.855469 74.910156 57.78125 74.246094 Z M 57.78125 74.246094 "/>
<path style=" stroke:none;fill-rule:nonzero;fill:rgb(98.039216%,87.058824%,78.039216%);fill-opacity:1;" d="M 25.820312 73 C 30.761719 89.140625 35.699219 105.277344 40.652344 121.734375 C 40.078125 122.027344 39.5 122.007812 38.367188 121.871094 C 36.882812 121.5625 35.957031 121.367188 35.035156 121.171875 C 34.097656 118.789062 33.15625 116.398438 31.992188 113.535156 C 31.488281 112.410156 31.210938 111.761719 30.9375 111.121094 C 26.832031 99.1875 22.804688 87.230469 18.546875 75.355469 C 17.769531 73.195312 17.84375 72.019531 20.492188 71.054688 C 22.355469 71.453125 23.746094 72.082031 25.292969 72.8125 C 25.449219 72.925781 25.820312 73 25.820312 73 Z M 25.820312 73 "/>
<path style=" stroke:none;fill-rule:nonzero;fill:rgb(97.647059%,86.666667%,78.039216%);fill-opacity:1;" d="M 104.828125 121.785156 C 108.894531 107.945312 112.960938 94.109375 117.035156 80.277344 C 117.660156 78.148438 118.351562 76.039062 119.363281 73.59375 C 120.839844 73.0625 121.972656 72.859375 123.460938 72.65625 C 124.984375 72.664062 126.152344 72.667969 127.324219 72.671875 C 126.253906 75.828125 125.183594 78.980469 123.859375 82.625 C 122.378906 86.882812 121.152344 90.648438 119.933594 94.417969 C 119.90625 95.027344 119.886719 95.628906 119.609375 96.699219 C 118.148438 100.414062 116.941406 103.667969 115.730469 106.921875 C 115.210938 108.394531 114.699219 109.871094 113.921875 111.824219 C 112.742188 114.699219 111.816406 117.09375 110.894531 119.488281 C 110.484375 120.238281 110.070312 120.980469 109.0625 121.847656 C 107.253906 121.902344 106.039062 121.839844 104.828125 121.785156 Z M 104.828125 121.785156 "/>
<path style=" stroke:none;fill-rule:nonzero;fill:rgb(49.019608%,22.745098%,7.843137%);fill-opacity:1;" d="M 102.59375 28.398438 C 102.492188 30.449219 102.386719 32.5 102.265625 34.800781 C 104.769531 35.664062 107.394531 36.570312 110.023438 37.46875 C 109.894531 38.101562 109.769531 38.734375 109.636719 39.367188 C 104.367188 40.46875 99.34375 38.417969 94.265625 37.101562 C 90.304688 44.011719 90.304688 44.011719 87.003906 41.71875 C 86.941406 39.339844 86.941406 37.632812 86.941406 35.925781 C 88.316406 31.136719 89.699219 26.355469 91.066406 21.226562 C 91.789062 19.445312 92.324219 17.835938 93.308594 16.605469 C 94.875 14.65625 96.789062 14.253906 98.21875 16.796875 C 99.007812 18.195312 99.398438 19.820312 99.96875 21.335938 C 100.601562 20.765625 101.234375 20.191406 101.867188 19.617188 C 101.867188 21.679688 101.867188 23.742188 101.910156 26.417969 C 102.171875 27.488281 102.382812 27.941406 102.59375 28.398438 M 95.953125 34.007812 C 96.683594 33.839844 98.035156 33.75 98.058594 33.5 C 98.542969 29.179688 98.859375 24.839844 99.21875 20.5 C 98.769531 20.453125 98.324219 20.394531 97.882812 20.34375 C 97.074219 24.75 96.273438 29.152344 95.953125 34.007812 Z M 95.953125 34.007812 "/>
<path style=" stroke:none;fill-rule:nonzero;fill:rgb(48.235294%,21.960784%,7.058824%);fill-opacity:1;" d="M 66.335938 26.726562 C 66.035156 25.675781 65.734375 24.621094 65.429688 23.570312 C 65.046875 23.574219 64.664062 23.574219 64.277344 23.574219 C 63.0625 27.5625 61.886719 31.566406 60.601562 35.535156 C 60.234375 36.671875 59.785156 38.027344 58.933594 38.691406 C 57.992188 39.425781 56.230469 40.085938 55.402344 39.652344 C 54.585938 39.222656 53.945312 37.261719 54.179688 36.179688 C 55.132812 31.730469 56.441406 27.351562 57.453125 22.574219 C 57.289062 22.191406 57.289062 21.824219 57.289062 21.824219 C 57.53125 21.652344 57.769531 21.480469 58.371094 21.039062 C 59.050781 20.527344 59.4375 20.34375 59.679688 20.035156 C 60.957031 18.410156 62.195312 16.761719 63.445312 15.117188 C 64.160156 16.65625 64.851562 18.203125 65.652344 19.691406 C 65.703125 19.78125 66.636719 19.386719 67.152344 19.214844 C 67.804688 18.957031 68.453125 18.703125 69.53125 18.59375 C 70.679688 18.0625 71.398438 17.394531 72.117188 16.71875 C 72.117188 16.71875 72.242188 16.496094 72.667969 16.570312 C 75.082031 20.664062 78.109375 19.535156 81.152344 18.632812 C 80.347656 19.652344 79.574219 20.394531 78.722656 21.023438 C 76.863281 22.394531 75.871094 23.714844 78.71875 25.074219 C 77.554688 25.914062 76.359375 26.71875 75.238281 27.609375 C 74.164062 28.453125 73.160156 29.390625 72.121094 30.605469 C 70.011719 30.820312 67.90625 30.722656 65.808594 30.140625 C 65.988281 28.675781 66.160156 27.699219 66.335938 26.726562 Z M 66.335938 26.726562 "/>
<path style=" stroke:none;fill-rule:nonzero;fill:rgb(47.843137%,24.313725%,10.196078%);fill-opacity:1;" d="M 102.871094 28.4375 C 102.382812 27.941406 102.171875 27.488281 101.902344 26.785156 C 102.113281 26.589844 102.453125 26.777344 102.632812 26.683594 C 107.914062 23.800781 107.910156 23.796875 113.125 29.386719 C 114.734375 31.042969 116.023438 32.308594 117.308594 33.574219 C 117.308594 33.574219 117.398438 33.460938 117.425781 33.769531 C 119.636719 36.375 121.816406 38.679688 124 40.984375 C 124 40.984375 124.023438 40.941406 124.050781 41.171875 C 124.308594 41.582031 124.535156 41.757812 124.761719 41.933594 C 124.761719 41.933594 124.777344 41.855469 124.753906 42.097656 C 124.9375 42.75 125.144531 43.160156 125.351562 43.570312 C 125.335938 43.898438 125.324219 44.226562 125.214844 44.960938 C 124.96875 45.816406 124.8125 46.269531 124.660156 46.71875 C 124.417969 46.667969 124.214844 46.730469 123.65625 47.109375 C 122.523438 47.472656 121.777344 47.640625 121.683594 47.660156 C 121.777344 49.21875 121.859375 50.503906 121.9375 51.792969 C 121.09375 51.660156 120.242188 51.527344 119.238281 50.898438 C 119.050781 48.953125 119.019531 47.503906 118.992188 46.050781 C 116.464844 43.011719 114.027344 39.894531 111.382812 36.964844 C 108.746094 34.039062 105.90625 31.300781 102.871094 28.4375 Z M 102.871094 28.4375 "/>
<path style=" stroke:none;fill-rule:nonzero;fill:rgb(47.843137%,24.313725%,10.196078%);fill-opacity:1;" d="M 38.367188 33.378906 C 35.550781 39.339844 32.78125 45.316406 29.886719 51.230469 C 28.941406 53.148438 27.667969 54.898438 26.070312 56.515625 C 22.597656 52.65625 25.21875 49.457031 26.328125 46.105469 C 26.691406 45.007812 26.679688 43.789062 26.839844 42.628906 C 26.960938 42.164062 27.089844 41.695312 27.65625 40.957031 C 30.453125 37.410156 32.808594 34.132812 35.160156 30.855469 C 36.738281 29.765625 38.3125 28.675781 39.808594 27.644531 C 39.660156 27.300781 39.847656 27.742188 40.234375 28.6875 C 40.5625 27.488281 40.757812 26.773438 41.511719 25.996094 C 42.703125 26.691406 43.761719 27.398438 43.894531 28.242188 C 44.195312 30.210938 44.054688 32.25 44.09375 34.261719 C 43.734375 34.253906 43.363281 34.253906 42.589844 34.046875 C 41.722656 33.699219 41.269531 33.558594 40.789062 33.1875 C 39.96875 33.101562 39.167969 33.238281 38.367188 33.378906 Z M 38.367188 33.378906 "/>
<path style=" stroke:none;fill-rule:nonzero;fill:rgb(49.411765%,23.921569%,10.196078%);fill-opacity:1;" d="M 123.109375 72.65625 C 121.972656 72.859375 120.839844 73.0625 119.425781 73.269531 C 117.160156 73.152344 115.1875 73.023438 112.878906 72.921875 C 115.714844 67.09375 118.886719 61.238281 122.527344 55.035156 C 124.675781 54.414062 126.34375 54.144531 128.011719 53.871094 C 128.222656 55.050781 128.433594 56.230469 128.5 57.882812 C 126.925781 61.179688 125.496094 64.011719 124.070312 66.847656 C 123.882812 67.707031 123.699219 68.574219 123.445312 70.003906 C 123.289062 71.269531 123.199219 71.964844 123.109375 72.65625 Z M 123.109375 72.65625 "/>
<path style=" stroke:none;fill-rule:nonzero;fill:rgb(48.235294%,21.960784%,6.666667%);fill-opacity:1;" d="M 44.105469 34.585938 C 44.054688 32.25 44.195312 30.210938 43.894531 28.242188 C 43.761719 27.398438 42.703125 26.691406 41.761719 25.882812 C 41.480469 24.628906 41.503906 23.421875 41.53125 22.21875 C 42.867188 22.386719 44.195312 22.550781 45.652344 23.304688 C 45.8125 25.488281 45.136719 27.664062 48.132812 26.8125 C 49.972656 32.429688 52.007812 37.988281 53.523438 43.6875 C 53.921875 45.167969 52.710938 47.089844 52.238281 48.808594 C 50.761719 47.84375 48.59375 47.214844 47.949219 45.84375 C 46.308594 42.375 45.34375 38.574219 44.105469 34.585938 Z M 44.105469 34.585938 "/>
<path style=" stroke:none;fill-rule:nonzero;fill:rgb(48.627451%,25.098039%,11.764706%);fill-opacity:1;" d="M 25.136719 72.707031 C 23.746094 72.082031 22.355469 71.453125 20.667969 70.800781 C 20.039062 69.488281 19.46875 68.207031 19.453125 66.921875 C 19.4375 65.402344 19.417969 63.289062 20.3125 62.539062 C 21.09375 61.878906 23.128906 62.75 24.921875 62.828125 C 26.527344 65.710938 27.828125 68.707031 29.164062 71.957031 C 28.605469 72.269531 28 72.324219 27.039062 72.09375 C 26.160156 72.109375 25.648438 72.410156 25.136719 72.707031 Z M 25.136719 72.707031 "/>
<path style=" stroke:none;fill-rule:nonzero;fill:rgb(90.196078%,43.137255%,40%);fill-opacity:1;" d="M 68.246094 124.125 C 67.878906 112.480469 67.507812 100.910156 67.375 88.949219 C 67.617188 88.558594 68.015625 88.558594 68.246094 88.8125 C 68.867188 97.988281 69.382812 106.910156 69.597656 115.839844 C 69.792969 123.734375 69.648438 123.734375 77 121.136719 C 76.992188 121.984375 76.980469 122.828125 76.917969 123.988281 C 75.242188 124.363281 73.613281 124.421875 71.332031 124.457031 C 69.828125 124.386719 68.984375 124.335938 68.132812 124.285156 C 68.132812 124.285156 68.242188 124.195312 68.246094 124.125 Z M 68.246094 124.125 "/>
<path style=" stroke:none;fill-rule:nonzero;fill:rgb(48.235294%,25.882353%,12.54902%);fill-opacity:1;" d="M 48.449219 26.792969 C 45.136719 27.664062 45.8125 25.488281 45.792969 23.578125 C 50.625 24.5625 50.652344 24.460938 51.578125 19 C 51.808594 17.640625 52.824219 16.417969 53.472656 15.128906 C 53.960938 15.292969 54.445312 15.460938 54.933594 15.621094 C 54.933594 17.632812 54.933594 19.636719 54.914062 21.996094 C 54.441406 25.160156 53.988281 27.96875 53.367188 31.816406 C 51.183594 29.417969 49.976562 28.09375 48.449219 26.792969 Z M 48.449219 26.792969 "/>
<path style=" stroke:none;fill-rule:nonzero;fill:rgb(48.235294%,21.960784%,7.058824%);fill-opacity:1;" d="M 79.007812 25.039062 C 75.871094 23.714844 76.863281 22.394531 78.722656 21.023438 C 79.574219 20.394531 80.347656 19.652344 81.308594 18.417969 C 81.882812 17.171875 82.300781 16.460938 82.714844 15.753906 C 82.714844 15.753906 82.816406 15.777344 83.027344 15.773438 C 83.617188 15.449219 83.988281 15.140625 84.367188 14.832031 C 88.398438 13.691406 88.59375 13.867188 88.507812 18.867188 C 85.386719 21.140625 82.34375 23.074219 79.007812 25.039062 Z M 79.007812 25.039062 "/>
<path style=" stroke:none;fill-rule:nonzero;fill:rgb(48.235294%,30.980392%,20%);fill-opacity:1;" d="M 66.976562 18.992188 C 66.636719 19.386719 65.703125 19.78125 65.652344 19.691406 C 64.851562 18.203125 64.160156 16.65625 63.445312 15.117188 C 62.195312 16.761719 60.957031 18.410156 59.679688 20.035156 C 59.4375 20.34375 59.050781 20.527344 58.445312 20.820312 C 58.851562 18.949219 59.207031 16.796875 60.304688 15.152344 C 61.226562 13.777344 63.015625 13 64.417969 11.957031 C 65.148438 13.425781 65.960938 14.863281 66.566406 16.382812 C 66.847656 17.089844 66.734375 17.964844 66.976562 18.992188 Z M 66.976562 18.992188 "/>
<path style=" stroke:none;fill-rule:nonzero;fill:rgb(50.980392%,32.54902%,21.960784%);fill-opacity:1;" d="M 82.484375 15.941406 C 82.300781 16.460938 81.882812 17.171875 81.3125 18.09375 C 78.109375 19.535156 75.082031 20.664062 72.792969 16.554688 C 73.175781 15.8125 73.761719 14.921875 74.570312 14.558594 C 75.5625 14.109375 76.75 14.09375 77.851562 13.890625 C 77.851562 14.972656 77.851562 16.0625 77.851562 17.496094 C 79.089844 17.109375 80.667969 16.613281 82.484375 15.941406 Z M 82.484375 15.941406 "/>
<path style=" stroke:none;fill-rule:nonzero;fill:rgb(48.627451%,25.098039%,11.764706%);fill-opacity:1;" d="M 26.644531 42.835938 C 26.679688 43.789062 26.691406 45.007812 26.328125 46.105469 C 25.21875 49.457031 22.597656 52.65625 25.785156 56.554688 C 25.960938 57.121094 25.945312 57.445312 25.910156 57.921875 C 21.597656 56.179688 21.117188 55.097656 22.894531 50.90625 C 24.019531 48.257812 25.265625 45.660156 26.644531 42.835938 Z M 26.644531 42.835938 "/>
<path style=" stroke:none;fill-rule:nonzero;fill:rgb(98.823529%,98.039216%,96.470588%);fill-opacity:1;" d="M 128.042969 53.515625 C 126.34375 54.144531 124.675781 54.414062 122.773438 54.863281 C 122.335938 54.179688 122.125 53.320312 121.929688 52.125 C 121.859375 50.503906 121.777344 49.21875 121.683594 47.660156 C 121.777344 47.640625 122.523438 47.472656 123.582031 47.261719 C 123.792969 48.273438 123.691406 49.335938 123.667969 49.597656 C 125.390625 50.992188 126.730469 52.074219 128.042969 53.515625 Z M 128.042969 53.515625 "/>
<path style=" stroke:none;fill-rule:nonzero;fill:rgb(48.627451%,25.098039%,11.764706%);fill-opacity:1;" d="M 35.019531 30.601562 C 32.808594 34.132812 30.453125 37.410156 27.84375 40.804688 C 28.746094 38.152344 29.671875 35.246094 31.160156 32.671875 C 31.808594 31.542969 33.605469 31.097656 35.019531 30.601562 Z M 35.019531 30.601562 "/>
<path style=" stroke:none;fill-rule:nonzero;fill:rgb(98.823529%,98.039216%,96.470588%);fill-opacity:1;" d="M 116.023438 106.886719 C 116.941406 103.667969 118.148438 100.414062 119.609375 97 C 121.511719 101.21875 118.582031 103.917969 116.023438 106.886719 Z M 116.023438 106.886719 "/>
<path style=" stroke:none;fill-rule:nonzero;fill:rgb(98.823529%,98.039216%,96.470588%);fill-opacity:1;" d="M 124.367188 66.8125 C 125.496094 64.011719 126.925781 61.179688 128.574219 58.132812 C 129.453125 61.851562 129.132812 65.308594 124.367188 66.8125 Z M 124.367188 66.8125 "/>
<path style=" stroke:none;fill-rule:nonzero;fill:rgb(87.45098%,42.745098%,40%);fill-opacity:1;" d="M 61.65625 118.542969 C 61.84375 120.015625 62.03125 121.488281 62.222656 123.289062 C 61.082031 123.675781 59.9375 123.734375 58.160156 123.789062 C 56.621094 123.460938 55.71875 123.136719 54.8125 122.820312 C 54.863281 122.445312 54.917969 122.070312 55.3125 121.472656 C 58.332031 122.382812 60.539062 122.597656 60.886719 118.628906 C 61.3125 118.585938 61.484375 118.566406 61.65625 118.542969 Z M 61.65625 118.542969 "/>
<path style=" stroke:none;fill-rule:nonzero;fill:rgb(98.823529%,98.039216%,96.470588%);fill-opacity:1;" d="M 120.214844 94.371094 C 121.152344 90.648438 122.378906 86.882812 123.839844 82.929688 C 125.898438 87.554688 122.632812 90.753906 120.214844 94.371094 Z M 120.214844 94.371094 "/>
<path style=" stroke:none;fill-rule:nonzero;fill:rgb(98.823529%,98.039216%,96.470588%);fill-opacity:1;" d="M 104.679688 121.867188 C 106.039062 121.839844 107.253906 121.902344 108.828125 121.96875 C 108.257812 123.269531 107.320312 124.558594 106.386719 125.851562 C 105.679688 125.089844 104.972656 124.335938 104.285156 123.082031 C 104.308594 122.585938 104.308594 122.191406 104.308594 122.191406 C 104.308594 122.191406 104.535156 121.941406 104.679688 121.867188 Z M 104.679688 121.867188 "/>
<path style=" stroke:none;fill-rule:nonzero;fill:rgb(98.823529%,98.039216%,96.470588%);fill-opacity:1;" d="M 124.003906 40.667969 C 121.816406 38.679688 119.636719 36.375 117.367188 33.808594 C 121.746094 33.558594 122.769531 37.070312 124.003906 40.667969 Z M 124.003906 40.667969 "/>
<path style=" stroke:none;fill-rule:nonzero;fill:rgb(98.823529%,98.039216%,96.470588%);fill-opacity:1;" d="M 111.183594 119.445312 C 111.816406 117.09375 112.742188 114.699219 113.890625 112.128906 C 115.359375 115.210938 113.648438 117.390625 111.183594 119.445312 Z M 111.183594 119.445312 "/>
<path style=" stroke:none;fill-rule:nonzero;fill:rgb(98.823529%,98.039216%,96.470588%);fill-opacity:1;" d="M 54.484375 122.832031 C 55.71875 123.136719 56.621094 123.460938 57.820312 123.851562 C 55.730469 126.949219 53.710938 124.738281 51.570312 123.15625 C 52.394531 122.859375 53.277344 122.847656 54.484375 122.832031 Z M 54.484375 122.832031 "/>
<path style=" stroke:none;fill-rule:nonzero;fill:rgb(98.823529%,98.039216%,96.470588%);fill-opacity:1;" d="M 123.460938 72.65625 C 123.199219 71.964844 123.289062 71.269531 123.492188 70.332031 C 124.8125 70.757812 126.015625 71.417969 127.273438 72.375 C 126.152344 72.667969 124.984375 72.664062 123.460938 72.65625 Z M 123.460938 72.65625 "/>
<path style=" stroke:none;fill-rule:nonzero;fill:rgb(98.823529%,98.039216%,96.470588%);fill-opacity:1;" d="M 117.347656 33.253906 C 116.023438 32.308594 114.734375 31.042969 113.378906 29.511719 C 115.777344 29.203125 117.292969 30.257812 117.347656 33.253906 Z M 117.347656 33.253906 "/>
<path style=" stroke:none;fill-rule:nonzero;fill:rgb(98.823529%,98.039216%,96.470588%);fill-opacity:1;" d="M 35.066406 121.46875 C 35.957031 121.367188 36.882812 121.5625 38.074219 121.878906 C 37.046875 124.828125 36.042969 123.710938 35.066406 121.46875 Z M 35.066406 121.46875 "/>
<path style=" stroke:none;fill-rule:nonzero;fill:rgb(98.823529%,98.039216%,96.470588%);fill-opacity:1;" d="M 68.125 124.59375 C 68.984375 124.335938 69.828125 124.386719 70.984375 124.53125 C 70.414062 126.824219 69.347656 126.847656 68.125 124.59375 Z M 68.125 124.59375 "/>
<path style=" stroke:none;fill-rule:nonzero;fill:rgb(50.980392%,32.54902%,21.960784%);fill-opacity:1;" d="M 71.867188 16.746094 C 71.398438 17.394531 70.679688 18.0625 69.804688 18.546875 C 70.304688 17.824219 70.957031 17.296875 71.867188 16.746094 Z M 71.867188 16.746094 "/>
<path style=" stroke:none;fill-rule:nonzero;fill:rgb(98.823529%,98.039216%,96.470588%);fill-opacity:1;" d="M 30.722656 111.28125 C 31.210938 111.761719 31.488281 112.410156 31.769531 113.332031 C 31.355469 112.890625 30.933594 112.171875 30.722656 111.28125 Z M 30.722656 111.28125 "/>
<path style=" stroke:none;fill-rule:nonzero;fill:rgb(98.431373%,85.098039%,76.078431%);fill-opacity:1;" d="M 42.40625 122.761719 C 43.339844 122.460938 44.359375 122.394531 45.628906 122.511719 C 44.75 122.792969 43.621094 122.898438 42.40625 122.761719 Z M 42.40625 122.761719 "/>
<path style=" stroke:none;fill-rule:nonzero;fill:rgb(98.823529%,98.039216%,96.470588%);fill-opacity:1;" d="M 88.644531 124.128906 C 88.914062 123.765625 89.234375 123.664062 89.808594 123.515625 C 90.222656 123.515625 90.394531 123.5625 90.816406 123.652344 C 90.285156 123.925781 89.492188 124.160156 88.644531 124.128906 Z M 88.644531 124.128906 "/>
<path style=" stroke:none;fill-rule:nonzero;fill:rgb(98.823529%,98.039216%,96.470588%);fill-opacity:1;" d="M 124.921875 46.714844 C 124.8125 46.269531 124.96875 45.816406 125.289062 45.199219 C 125.371094 45.59375 125.28125 46.15625 124.921875 46.714844 Z M 124.921875 46.714844 "/>
<path style=" stroke:none;fill-rule:nonzero;fill:rgb(98.823529%,98.039216%,96.470588%);fill-opacity:1;" d="M 126 35.890625 C 126.324219 35.6875 126.644531 35.6875 126.96875 35.714844 C 126.976562 35.714844 126.96875 35.972656 126.96875 36.109375 C 126.644531 36.101562 126.316406 36.097656 126 35.890625 Z M 126 35.890625 "/>
<path style=" stroke:none;fill-rule:nonzero;fill:rgb(98.823529%,98.039216%,96.470588%);fill-opacity:1;" d="M 129.828125 39.601562 C 130.027344 39.929688 130.027344 40.257812 130 40.582031 C 130 40.59375 129.75 40.582031 129.613281 40.582031 C 129.617188 40.253906 129.625 39.925781 129.828125 39.601562 Z M 129.828125 39.601562 "/>
<path style=" stroke:none;fill-rule:nonzero;fill:rgb(98.823529%,98.039216%,96.470588%);fill-opacity:1;" d="M 125.582031 43.445312 C 125.144531 43.160156 124.9375 42.75 124.714844 42.105469 C 125.074219 42.355469 125.445312 42.835938 125.582031 43.445312 Z M 125.582031 43.445312 "/>
<path style=" stroke:none;fill-rule:nonzero;fill:rgb(98.431373%,85.098039%,75.686275%);fill-opacity:1;" d="M 104.058594 122.175781 C 104.308594 122.191406 104.308594 122.585938 104.28125 122.789062 C 103.855469 122.941406 103.449219 122.890625 102.753906 122.753906 C 102.910156 122.496094 103.359375 122.328125 104.058594 122.175781 Z M 104.058594 122.175781 "/>
<path style=" stroke:none;fill-rule:nonzero;fill:rgb(50.980392%,32.54902%,21.960784%);fill-opacity:1;" d="M 84.089844 14.851562 C 83.988281 15.140625 83.617188 15.449219 82.976562 15.773438 C 83.082031 15.484375 83.445312 15.175781 84.089844 14.851562 Z M 84.089844 14.851562 "/>
<path style=" stroke:none;fill-rule:nonzero;fill:rgb(48.235294%,25.882353%,12.54902%);fill-opacity:1;" d="M 57.0625 21.792969 C 57.289062 21.824219 57.289062 22.191406 57.289062 22.375 C 57.121094 22.550781 56.957031 22.546875 56.535156 22.511719 C 56.472656 22.238281 56.648438 22 57.0625 21.792969 Z M 57.0625 21.792969 "/>
<path style=" stroke:none;fill-rule:nonzero;fill:rgb(98.823529%,98.039216%,96.470588%);fill-opacity:1;" d="M 124.710938 41.71875 C 124.535156 41.757812 124.308594 41.582031 124.03125 41.179688 C 124.207031 41.140625 124.429688 41.324219 124.710938 41.71875 Z M 124.710938 41.71875 "/>
<path style=" stroke:none;fill-rule:nonzero;fill:rgb(98.823529%,34.509804%,34.509804%);fill-opacity:1;" d="M 77.039062 120.863281 C 69.648438 123.734375 69.792969 123.734375 69.597656 115.839844 C 69.382812 106.910156 68.867188 97.988281 68.246094 88.421875 C 68.003906 82.746094 68 77.71875 68.316406 72.703125 C 69.507812 72.789062 70.367188 72.863281 71.230469 72.9375 C 71.230469 72.9375 71.175781 73.273438 71.074219 73.484375 C 70.972656 73.683594 71 73.96875 71 73.96875 C 71 73.96875 71.210938 73.644531 71.210938 73.644531 C 71.875 73.628906 72.535156 73.613281 73.683594 73.820312 C 74.863281 73.820312 75.550781 73.597656 76.351562 73.324219 C 76.460938 73.273438 76.691406 73.347656 77.03125 73.402344 C 77.828125 73.484375 78.28125 73.507812 78.734375 73.535156 C 78.753906 73.710938 78.78125 73.886719 78.824219 74.332031 C 78.855469 74.601562 78.925781 74.890625 78.667969 75.136719 C 78.515625 75.886719 78.613281 76.378906 78.714844 76.875 C 78.703125 77.761719 78.699219 78.640625 78.320312 79.953125 C 77.65625 81.785156 77.183594 83.183594 77.101562 84.605469 C 76.765625 90.78125 76.351562 96.964844 76.324219 103.148438 C 76.304688 108.589844 76.773438 114.035156 77.019531 119.476562 C 77.039062 119.847656 77.0625 120.214844 77.039062 120.863281 Z M 77.039062 120.863281 "/>
<path style=" stroke:none;fill-rule:nonzero;fill:rgb(49.019608%,21.960784%,6.27451%);fill-opacity:1;" d="M 102.332031 49.574219 C 104.746094 54.371094 107.183594 58.816406 109.164062 63.464844 C 109.671875 64.660156 108.738281 66.480469 108.464844 68.015625 C 106.890625 67.34375 104.621094 67.121094 103.875 65.914062 C 100.996094 61.277344 98.59375 56.34375 96.054688 51.496094 C 95.167969 49.808594 93.996094 48.109375 93.730469 46.296875 C 93.527344 44.957031 94.570312 43.421875 95.058594 41.980469 C 96.367188 42.503906 98.074219 42.667969 98.886719 43.621094 C 100.28125 45.257812 101.117188 47.382812 102.332031 49.574219 Z M 102.332031 49.574219 "/>
<path style=" stroke:none;fill-rule:nonzero;fill:rgb(49.019608%,21.568627%,5.882353%);fill-opacity:1;" d="M 76.691406 73.347656 C 76.691406 73.347656 76.460938 73.273438 76.144531 73.28125 C 75.695312 73.234375 75.5625 73.183594 75.433594 73.132812 C 73.347656 70.519531 73.402344 68.101562 75.300781 65.195312 C 78.542969 60.25 81.179688 54.890625 84.441406 49.957031 C 85.355469 48.582031 88.121094 46.972656 89.128906 47.449219 C 91.667969 48.652344 91.277344 51.496094 90.027344 53.613281 C 86.472656 59.636719 82.683594 65.519531 78.574219 71.722656 C 77.664062 72.445312 77.175781 72.894531 76.691406 73.347656 Z M 76.691406 73.347656 "/>
<path style=" stroke:none;fill-rule:nonzero;fill:rgb(49.019608%,21.960784%,5.882353%);fill-opacity:1;" d="M 69.644531 56.003906 C 70.152344 51.582031 70.738281 47.175781 71.144531 42.746094 C 71.488281 39.007812 71.628906 35.253906 71.988281 31.207031 C 75.875 30.222656 76.992188 32.480469 77.027344 35.648438 C 77.101562 41.890625 77.226562 48.144531 76.949219 54.378906 C 76.863281 56.347656 75.558594 58.253906 74.671875 60.5625 C 72.675781 59.285156 71.449219 58.5 69.929688 57.40625 C 69.644531 56.738281 69.644531 56.367188 69.644531 56.003906 Z M 69.644531 56.003906 "/>
<path style=" stroke:none;fill-rule:nonzero;fill:rgb(49.411765%,21.568627%,5.882353%);fill-opacity:1;" d="M 97.671875 72.015625 C 96.582031 72.480469 95.472656 72.632812 94.03125 72.808594 C 92.675781 71.363281 91.402344 69.988281 90.6875 68.371094 C 89.976562 66.769531 89.738281 64.925781 89.445312 63.164062 C 89.039062 60.730469 87.476562 57.484375 91.539062 56.96875 C 95.117188 56.519531 95.328125 59.953125 95.925781 62.386719 C 96.671875 65.445312 97.089844 68.585938 97.671875 72.015625 Z M 97.671875 72.015625 "/>
<path style=" stroke:none;fill-rule:nonzero;fill:rgb(50.196078%,22.352941%,6.666667%);fill-opacity:1;" d="M 71.246094 72.597656 C 70.367188 72.863281 69.507812 72.789062 68.148438 72.503906 C 67.1875 73.058594 66.730469 73.816406 66.273438 74.570312 C 65.617188 74.347656 64.957031 74.121094 64.082031 73.742188 C 62.695312 71.640625 61.519531 69.691406 60.050781 67.402344 C 59.757812 66.441406 59.757812 65.8125 59.757812 65.191406 C 60.023438 64.59375 60.410156 64.027344 60.546875 63.398438 C 61.296875 59.839844 62.554688 59.277344 65.402344 61.28125 C 66.054688 61.742188 66.734375 62.164062 67.90625 62.769531 C 68.539062 63.402344 68.679688 63.871094 68.820312 64.332031 C 69.148438 65.769531 69.40625 67.230469 69.835938 68.636719 C 70.207031 69.878906 70.78125 71.054688 71.246094 72.597656 Z M 71.246094 72.597656 "/>
<path style=" stroke:none;fill-rule:nonzero;fill:rgb(49.803922%,22.352941%,5.490196%);fill-opacity:1;" d="M 104.222656 48.40625 C 103.542969 46.460938 102.992188 44.808594 102.25 42.582031 C 107.046875 44.015625 111.183594 52.027344 109.941406 57.835938 C 107.714844 54.195312 106.03125 51.441406 104.222656 48.40625 Z M 104.222656 48.40625 "/>
<path style=" stroke:none;fill-rule:nonzero;fill:rgb(49.411765%,22.352941%,6.666667%);fill-opacity:1;" d="M 81.179688 35.925781 C 80.492188 35.160156 79.078125 33.9375 79.222656 33.703125 C 81.753906 29.597656 84.472656 25.613281 87.148438 21.601562 C 87.703125 21.867188 88.261719 22.136719 88.816406 22.40625 C 88.183594 24.277344 87.703125 26.226562 86.867188 28.003906 C 86.0625 29.71875 84.890625 31.257812 83.53125 33.257812 C 82.519531 34.402344 81.847656 35.160156 81.179688 35.925781 Z M 81.179688 35.925781 "/>
<path style=" stroke:none;fill-rule:nonzero;fill:rgb(49.411765%,22.352941%,5.490196%);fill-opacity:1;" d="M 83.652344 35.929688 C 84.015625 35.929688 84.382812 35.929688 85.019531 36.261719 C 85.019531 38.320312 84.746094 40.046875 84.476562 41.777344 C 83.890625 43.980469 83.480469 46.253906 82.632812 48.34375 C 82.246094 49.300781 81.007812 49.902344 80.148438 50.667969 C 79.800781 49.65625 78.992188 48.535156 79.199219 47.65625 C 79.921875 44.464844 80.996094 41.363281 82.191406 37.816406 C 82.847656 36.914062 83.25 36.421875 83.652344 35.929688 Z M 83.652344 35.929688 "/>
<path style=" stroke:none;fill-rule:nonzero;fill:rgb(49.803922%,21.960784%,5.490196%);fill-opacity:1;" d="M 114.023438 55.167969 C 115.023438 53.734375 115.949219 52.617188 116.863281 51.496094 C 117.292969 51.765625 117.726562 52.035156 118.15625 52.300781 C 116.566406 57.125 116.515625 62.511719 113.039062 66.648438 C 112.460938 66.488281 111.882812 66.324219 111.300781 66.164062 C 112.183594 62.605469 113.058594 59.046875 114.023438 55.167969 Z M 114.023438 55.167969 "/>
<path style=" stroke:none;fill-rule:nonzero;fill:rgb(49.411765%,21.960784%,5.490196%);fill-opacity:1;" d="M 69.085938 64.441406 C 68.679688 63.871094 68.539062 63.402344 68.203125 62.804688 C 66.785156 58.699219 65.566406 54.730469 64.222656 50.347656 C 68.878906 50.363281 68.296875 53.566406 69.421875 55.800781 C 69.644531 56.367188 69.644531 56.738281 69.644531 57.378906 C 70.183594 59.203125 70.96875 60.726562 71.136719 62.316406 C 71.207031 62.988281 69.980469 63.804688 69.085938 64.441406 Z M 69.085938 64.441406 "/>
<path style=" stroke:none;fill-rule:nonzero;fill:rgb(49.019608%,23.529412%,9.411765%);fill-opacity:1;" d="M 118.699219 46.015625 C 119.019531 47.503906 119.050781 48.953125 119.082031 50.6875 C 116.175781 49.210938 113.210938 47.539062 110.429688 45.59375 C 109.820312 45.164062 109.871094 43.761719 109.613281 42.8125 C 110.460938 42.675781 111.46875 42.167969 112.113281 42.472656 C 114.28125 43.484375 116.316406 44.785156 118.699219 46.015625 Z M 118.699219 46.015625 "/>
<path style=" stroke:none;fill-rule:nonzero;fill:rgb(49.019608%,23.137255%,6.666667%);fill-opacity:1;" d="M 104.96875 72.429688 C 103.683594 73.132812 102.277344 73.570312 100.558594 74.03125 C 100.023438 71.785156 99.8125 69.523438 99.601562 67.257812 C 100.164062 67.0625 100.730469 66.871094 101.292969 66.675781 C 102.476562 68.507812 103.667969 70.332031 104.96875 72.429688 Z M 104.96875 72.429688 "/>
<path style=" stroke:none;fill-rule:nonzero;fill:rgb(47.843137%,22.352941%,7.843137%);fill-opacity:1;" d="M 88.234375 73.4375 C 86.472656 73.371094 84.996094 73.246094 83.207031 73.152344 C 83.277344 72.375 83.46875 71.320312 84.089844 70.78125 C 85.046875 69.949219 86.644531 68.671875 87.355469 68.996094 C 89.019531 69.742188 90.582031 71.261719 88.234375 73.4375 Z M 88.234375 73.4375 "/>
<path style=" stroke:none;fill-rule:nonzero;fill:rgb(52.54902%,25.098039%,8.627451%);fill-opacity:1;" d="M 84.683594 41.695312 C 84.746094 40.046875 85.019531 38.320312 85.289062 36.261719 C 85.664062 35.929688 86.027344 35.929688 86.671875 35.925781 C 86.941406 37.632812 86.941406 39.339844 86.941406 41.414062 C 86.257812 41.726562 85.570312 41.671875 84.683594 41.695312 Z M 84.683594 41.695312 "/>
<path style=" stroke:none;fill-rule:nonzero;fill:rgb(52.54902%,25.098039%,8.627451%);fill-opacity:1;" d="M 83.652344 35.617188 C 83.25 36.421875 82.847656 36.914062 82.226562 37.5 C 81.867188 37.136719 81.722656 36.671875 81.378906 36.066406 C 81.847656 35.160156 82.519531 34.402344 83.414062 33.527344 C 83.648438 34.042969 83.648438 34.675781 83.652344 35.617188 Z M 83.652344 35.617188 "/>
<path style=" stroke:none;fill-rule:nonzero;fill:rgb(90.196078%,43.137255%,40%);fill-opacity:1;" d="M 77.03125 73.402344 C 77.175781 72.894531 77.664062 72.445312 78.417969 71.96875 C 78.71875 72.296875 78.75 72.652344 78.757812 73.269531 C 78.28125 73.507812 77.828125 73.484375 77.03125 73.402344 Z M 77.03125 73.402344 "/>
<path style=" stroke:none;fill-rule:nonzero;fill:rgb(90.196078%,43.137255%,40%);fill-opacity:1;" d="M 75.179688 73.261719 C 75.5625 73.183594 75.695312 73.234375 76.03125 73.332031 C 75.550781 73.597656 74.863281 73.820312 74.011719 73.863281 C 74.207031 73.578125 74.570312 73.476562 75.179688 73.261719 Z M 75.179688 73.261719 "/>
<path style=" stroke:none;fill-rule:nonzero;fill:rgb(96.862745%,35.686275%,35.294118%);fill-opacity:1;" d="M 60.628906 118.648438 C 60.539062 122.597656 58.332031 122.382812 55.367188 121.195312 C 55.003906 120.769531 54.929688 120.398438 55.085938 119.511719 C 54.550781 114.695312 53.78125 110.386719 53.007812 106.078125 C 53.007812 106.078125 52.933594 105.839844 53.023438 105.359375 C 52.695312 103.335938 52.277344 101.789062 51.859375 100.242188 C 51.769531 99.875 51.683594 99.511719 51.796875 98.671875 C 51.582031 97.210938 51.171875 96.226562 50.753906 95.238281 C 49.667969 88.355469 48.585938 81.472656 47.453125 73.9375 C 47.453125 72.828125 47.496094 72.375 47.546875 71.914062 C 48.984375 72.359375 50.417969 72.804688 52.164062 73.511719 C 52.691406 73.730469 52.910156 73.675781 53.125 73.625 C 53.804688 73.785156 54.484375 73.949219 55.503906 74.480469 C 56.527344 75.527344 57.210938 76.210938 57.898438 76.894531 C 57.972656 77.511719 58.046875 78.128906 57.882812 79.285156 C 58.007812 81.910156 58.382812 84 58.753906 86.085938 C 58.835938 86.703125 58.910156 87.324219 58.773438 88.378906 C 58.757812 89.265625 58.949219 89.710938 59.148438 90.15625 C 59.363281 92.445312 59.582031 94.734375 59.546875 97.609375 C 59.675781 100.285156 60.054688 102.371094 60.4375 104.464844 C 60.519531 105.339844 60.597656 106.214844 60.421875 107.636719 C 60.507812 110 60.855469 111.828125 61.203125 113.65625 C 61.285156 114.273438 61.359375 114.890625 61.203125 116 C 60.851562 117.203125 60.738281 117.921875 60.628906 118.648438 Z M 60.628906 118.648438 "/>
<path style=" stroke:none;fill-rule:nonzero;fill:rgb(49.019608%,21.960784%,5.882353%);fill-opacity:1;" d="M 68.6875 39.417969 C 65.0625 46.75 61.539062 53.855469 57.585938 60.707031 C 56.941406 61.824219 54.390625 61.804688 52.722656 62.308594 C 52.398438 60.671875 51.292969 58.605469 51.890625 57.457031 C 55.1875 51.132812 58.714844 44.910156 62.558594 38.914062 C 64.179688 36.386719 66.722656 35.648438 68.6875 39.417969 Z M 68.6875 39.417969 "/>
<path style=" stroke:none;fill-rule:nonzero;fill:rgb(49.019608%,21.960784%,6.27451%);fill-opacity:1;" d="M 30.894531 58.492188 C 32.023438 53.730469 32.953125 49.261719 34.339844 44.941406 C 34.738281 43.71875 36.457031 42.933594 37.570312 41.945312 C 38.375 43.179688 39.953125 44.492188 39.847656 45.640625 C 39.476562 49.734375 38.597656 53.785156 37.78125 57.832031 C 37.261719 60.382812 36.820312 63.039062 35.753906 65.367188 C 34.96875 67.078125 33.175781 69.59375 31.921875 69.542969 C 29.148438 69.4375 28.953125 67.0625 29.839844 64.527344 C 30.464844 62.734375 30.546875 60.746094 30.894531 58.492188 Z M 30.894531 58.492188 "/>
<path style=" stroke:none;fill-rule:nonzero;fill:rgb(49.411765%,21.960784%,5.490196%);fill-opacity:1;" d="M 59.367188 65.1875 C 59.757812 65.8125 59.757812 66.441406 59.761719 67.378906 C 58.007812 68.140625 56.152344 69.207031 54.527344 68.921875 C 51.335938 68.359375 47.546875 70.003906 44.96875 66.328125 C 44.925781 66.003906 44.921875 66.011719 44.921875 66.011719 C 49.613281 65.730469 54.300781 65.460938 59.367188 65.1875 Z M 59.367188 65.1875 "/>
<path style=" stroke:none;fill-rule:nonzero;fill:rgb(50.196078%,21.960784%,5.490196%);fill-opacity:1;" d="M 44.789062 50.128906 C 44.226562 52.894531 43.816406 55.355469 43.183594 57.75 C 43.027344 58.339844 42.136719 58.738281 41.582031 59.21875 C 41.050781 58.558594 39.984375 57.804688 40.085938 57.261719 C 40.746094 53.601562 41.609375 49.972656 42.535156 46.371094 C 42.652344 45.910156 43.683594 45.226562 43.945312 45.351562 C 44.5625 45.660156 45.316406 46.355469 45.390625 46.972656 C 45.5 47.878906 45.066406 48.851562 44.789062 50.128906 Z M 44.789062 50.128906 "/>
<path style=" stroke:none;fill-rule:nonzero;fill:rgb(49.411765%,21.960784%,5.490196%);fill-opacity:1;" d="M 44.925781 66.003906 C 41.117188 65.53125 40.859375 64.949219 42.804688 61.859375 C 44.125 59.773438 45.089844 57.441406 46.53125 55.460938 C 47.269531 54.445312 48.714844 53.953125 49.839844 53.21875 C 50.167969 53.597656 50.496094 53.976562 50.824219 54.351562 C 48.863281 58.03125 46.898438 61.707031 44.925781 65.695312 C 44.921875 66.011719 44.925781 66.003906 44.925781 66.003906 Z M 44.925781 66.003906 "/>
<path style=" stroke:none;fill-rule:nonzero;fill:rgb(47.45098%,22.745098%,7.45098%);fill-opacity:1;" d="M 47.246094 71.785156 C 47.496094 72.375 47.453125 72.828125 47.390625 73.632812 C 44.28125 73.359375 41.1875 72.742188 37.800781 72 C 40.597656 69.074219 43.761719 69.878906 47.246094 71.785156 Z M 47.246094 71.785156 "/>
<path style=" stroke:none;fill-rule:nonzero;fill:rgb(48.627451%,21.960784%,5.490196%);fill-opacity:1;" d="M 40.808594 33.414062 C 41.269531 33.558594 41.722656 33.699219 42.3125 34.046875 C 42.453125 34.386719 42.472656 34.527344 42.457031 34.664062 C 42.277344 36.382812 42.089844 38.09375 41.902344 39.808594 C 40.984375 38.179688 40.070312 36.542969 39.363281 34.5 C 39.988281 33.859375 40.402344 33.636719 40.808594 33.414062 Z M 40.808594 33.414062 "/>
<path style=" stroke:none;fill-rule:nonzero;fill:rgb(48.235294%,21.960784%,7.058824%);fill-opacity:1;" d="M 66.097656 26.855469 C 66.160156 27.699219 65.988281 28.675781 65.664062 29.871094 C 65.628906 29.058594 65.738281 28.019531 66.097656 26.855469 Z M 66.097656 26.855469 "/>
<path style=" stroke:none;fill-rule:nonzero;fill:rgb(90.980392%,42.745098%,40.784314%);fill-opacity:1;" d="M 57.953125 76.566406 C 57.210938 76.210938 56.527344 75.527344 55.742188 74.605469 C 56.175781 74.351562 56.714844 74.339844 57.515625 74.289062 C 57.855469 74.910156 57.925781 75.566406 57.953125 76.566406 Z M 57.953125 76.566406 "/>
<path style=" stroke:none;fill-rule:nonzero;fill:rgb(48.235294%,21.960784%,6.666667%);fill-opacity:1;" d="M 40.789062 33.1875 C 40.402344 33.636719 39.988281 33.859375 39.363281 34.167969 C 38.878906 34.167969 38.667969 34.007812 38.441406 33.574219 C 39.167969 33.238281 39.96875 33.101562 40.789062 33.1875 Z M 40.789062 33.1875 "/>
<path style=" stroke:none;fill-rule:nonzero;fill:rgb(90.980392%,42.745098%,40.784314%);fill-opacity:1;" d="M 52.9375 73.570312 C 52.910156 73.675781 52.691406 73.730469 52.414062 73.644531 C 52.359375 73.507812 52.753906 73.511719 52.9375 73.570312 Z M 52.9375 73.570312 "/>
<path style=" stroke:none;fill-rule:nonzero;fill:rgb(87.45098%,42.745098%,40%);fill-opacity:1;" d="M 53 106.453125 C 53.78125 110.386719 54.550781 114.695312 55.105469 119.222656 C 54.253906 115.246094 53.621094 111.039062 53 106.453125 Z M 53 106.453125 "/>
<path style=" stroke:none;fill-rule:nonzero;fill:rgb(87.45098%,42.745098%,40%);fill-opacity:1;" d="M 51.796875 100.546875 C 52.277344 101.789062 52.695312 103.335938 53.070312 105.242188 C 52.597656 104.023438 52.164062 102.433594 51.796875 100.546875 Z M 51.796875 100.546875 "/>
<path style=" stroke:none;fill-rule:nonzero;fill:rgb(87.45098%,42.745098%,40%);fill-opacity:1;" d="M 50.789062 95.527344 C 51.171875 96.226562 51.582031 97.210938 51.800781 98.386719 C 51.339844 97.660156 51.078125 96.738281 50.789062 95.527344 Z M 50.789062 95.527344 "/>
<path style=" stroke:none;fill-rule:nonzero;fill:rgb(55.686275%,27.058824%,10.588235%);fill-opacity:1;" d="M 25.292969 72.8125 C 25.648438 72.410156 26.160156 72.109375 26.742188 72.007812 C 26.644531 72.339844 26.484375 72.46875 26.070312 72.804688 C 25.820312 73 25.449219 72.925781 25.292969 72.8125 Z M 25.292969 72.8125 "/>
<path style=" stroke:none;fill-rule:nonzero;fill:rgb(90.196078%,43.137255%,40%);fill-opacity:1;" d="M 77.085938 119.128906 C 76.773438 114.035156 76.304688 108.589844 76.324219 103.148438 C 76.351562 96.964844 76.765625 90.78125 77.101562 84.605469 C 77.183594 83.183594 77.65625 81.785156 78.261719 80.277344 C 78.097656 93.046875 77.625 105.910156 77.085938 119.128906 Z M 77.085938 119.128906 "/>
<path style=" stroke:none;fill-rule:nonzero;fill:rgb(90.196078%,43.137255%,40%);fill-opacity:1;" d="M 78.769531 76.597656 C 78.613281 76.378906 78.515625 75.886719 78.625 75.285156 C 78.828125 75.554688 78.828125 75.933594 78.769531 76.597656 Z M 78.769531 76.597656 "/>
<path style=" stroke:none;fill-rule:nonzero;fill:rgb(86.27451%,41.176471%,37.254902%);fill-opacity:1;" d="M 66.300781 74.941406 C 66.730469 73.816406 67.1875 73.058594 67.820312 72.496094 C 68 77.71875 68.003906 82.746094 68.011719 88.167969 C 68.015625 88.558594 67.617188 88.558594 67.421875 88.558594 C 66.925781 84.136719 66.628906 79.722656 66.300781 74.941406 Z M 66.300781 74.941406 "/>
<path style=" stroke:none;fill-rule:nonzero;fill:rgb(90.980392%,42.745098%,40.784314%);fill-opacity:1;" d="M 58.808594 85.738281 C 58.382812 84 58.007812 81.910156 57.863281 79.597656 C 58.351562 81.375 58.609375 83.382812 58.808594 85.738281 Z M 58.808594 85.738281 "/>
<path style=" stroke:none;fill-rule:nonzero;fill:rgb(90.980392%,42.745098%,40.784314%);fill-opacity:1;" d="M 60.492188 104.113281 C 60.054688 102.371094 59.675781 100.285156 59.53125 97.96875 C 60.023438 99.75 60.285156 101.761719 60.492188 104.113281 Z M 60.492188 104.113281 "/>
<path style=" stroke:none;fill-rule:nonzero;fill:rgb(90.980392%,42.745098%,40.784314%);fill-opacity:1;" d="M 61.273438 113.316406 C 60.855469 111.828125 60.507812 110 60.40625 107.964844 C 60.878906 109.496094 61.113281 111.238281 61.273438 113.316406 Z M 61.273438 113.316406 "/>
<path style=" stroke:none;fill-rule:nonzero;fill:rgb(90.980392%,42.745098%,40.784314%);fill-opacity:1;" d="M 60.886719 118.628906 C 60.738281 117.921875 60.851562 117.203125 61.171875 116.308594 C 61.464844 116.734375 61.546875 117.335938 61.640625 118.238281 C 61.484375 118.566406 61.3125 118.585938 60.886719 118.628906 Z M 60.886719 118.628906 "/>
<path style=" stroke:none;fill-rule:nonzero;fill:rgb(90.980392%,42.745098%,40.784314%);fill-opacity:1;" d="M 59.148438 89.890625 C 58.949219 89.710938 58.757812 89.265625 58.753906 88.6875 C 59.011719 88.917969 59.078125 89.265625 59.148438 89.890625 Z M 59.148438 89.890625 "/>
<path style=" stroke:none;fill-rule:nonzero;fill:rgb(56.078431%,28.235294%,11.372549%);fill-opacity:1;" d="M 95.710938 33.78125 C 96.273438 29.152344 97.074219 24.75 97.882812 20.34375 C 98.324219 20.394531 98.769531 20.453125 99.21875 20.5 C 98.859375 24.839844 98.542969 29.179688 98.058594 33.5 C 98.035156 33.75 96.683594 33.839844 95.710938 33.78125 Z M 95.710938 33.78125 "/>
<path style=" stroke:none;fill-rule:nonzero;fill:rgb(90.196078%,43.137255%,40%);fill-opacity:1;" d="M 71.226562 73.59375 C 71.210938 73.644531 71 73.96875 71 73.96875 C 71 73.96875 70.972656 73.683594 71.066406 73.648438 C 71.160156 73.613281 71.242188 73.539062 71.226562 73.59375 Z M 71.226562 73.59375 "/>
</g>
</svg>
